<svg width="14" height="14" viewBox="0 0 14 14" fill="none" xmlns="http://www.w3.org/2000/svg">
<path d="M6.99996 13.2709C3.54079 13.2709 0.729126 10.4592 0.729126 7.00002C0.729126 3.54085 3.54079 0.729187 6.99996 0.729187C10.4591 0.729187 13.2708 3.54085 13.2708 7.00002C13.2708 10.4592 10.4591 13.2709 6.99996 13.2709ZM6.99996 1.60419C4.02496 1.60419 1.60413 4.02502 1.60413 7.00002C1.60413 9.97502 4.02496 12.3959 6.99996 12.3959C9.97496 12.3959 12.3958 9.97502 12.3958 7.00002C12.3958 4.02502 9.97496 1.60419 6.99996 1.60419Z" fill="#717680"/>
<path d="M9.16396 9.29253C9.08813 9.29253 9.01229 9.27502 8.94229 9.22836L7.13396 8.14919C6.68479 7.88086 6.35229 7.29169 6.35229 6.77253V4.38086C6.35229 4.14169 6.55063 3.94336 6.78979 3.94336C7.02896 3.94336 7.22729 4.14169 7.22729 4.38086V6.77253C7.22729 6.98253 7.40229 7.29169 7.58313 7.39669L9.39146 8.47586C9.60146 8.59836 9.66563 8.86669 9.54313 9.07669C9.45563 9.21669 9.30979 9.29253 9.16396 9.29253Z" fill="#717680"/>
</svg>
