<svg width="14" height="14" viewBox="0 0 14 14" fill="none" xmlns="http://www.w3.org/2000/svg">
<path d="M6.99935 13.2707C3.54018 13.2707 0.728516 10.459 0.728516 6.99984C0.728516 3.54067 3.54018 0.729004 6.99935 0.729004C10.4585 0.729004 13.2702 3.54067 13.2702 6.99984C13.2702 10.459 10.4585 13.2707 6.99935 13.2707ZM6.99935 1.604C4.02435 1.604 1.60352 4.02484 1.60352 6.99984C1.60352 9.97484 4.02435 12.3957 6.99935 12.3957C9.97435 12.3957 12.3952 9.97484 12.3952 6.99984C12.3952 4.02484 9.97435 1.604 6.99935 1.604Z" fill="#717680"/>
<path d="M9.16323 9.29253C9.0874 9.29253 9.01156 9.27502 8.94156 9.22836L7.13323 8.14919C6.68406 7.88086 6.35156 7.29169 6.35156 6.77253V4.38086C6.35156 4.14169 6.5499 3.94336 6.78906 3.94336C7.02823 3.94336 7.22656 4.14169 7.22656 4.38086V6.77253C7.22656 6.98253 7.40156 7.29169 7.5824 7.39669L9.39073 8.47586C9.60073 8.59836 9.6649 8.86669 9.5424 9.07669C9.4549 9.21669 9.30906 9.29253 9.16323 9.29253Z" fill="#717680"/>
</svg>
