<svg width="70" height="72" viewBox="0 0 70 72" fill="none" xmlns="http://www.w3.org/2000/svg">
<path d="M35.5416 3.24439H7.93666C6.89384 3.24403 5.86119 3.44887 4.89776 3.8472C3.93432 4.24552 3.05901 4.82952 2.32188 5.56578C1.58476 6.30204 1.00027 7.17612 0.601864 8.13803C0.203455 9.09995 -0.00106399 10.1308 4.16248e-06 11.1717V64.0781C4.16248e-06 66.1791 0.836185 68.1941 2.3246 69.6797C3.81301 71.1654 5.83172 72 7.93666 72H35.5389C44.6729 72 53.4329 68.3784 59.892 61.9319C66.351 55.4854 69.98 46.742 69.9807 37.6249C69.9818 33.1101 69.0917 28.6394 67.3614 24.468C65.6312 20.2967 63.0945 16.5064 59.8964 13.3137C56.6983 10.1211 52.9014 7.58855 48.7225 5.86083C44.5437 4.13311 40.0647 3.24403 35.5416 3.24439ZM10.9596 60.4038C10.1172 60.4043 9.29356 60.1554 8.5929 59.6886C7.89223 59.2218 7.34603 58.558 7.02341 57.7813C6.70078 57.0045 6.61623 56.1497 6.78044 55.325C6.94466 54.5003 7.35026 53.7427 7.94594 53.1481C8.54162 52.5536 9.3006 52.1487 10.1269 51.9848C10.9531 51.8209 11.8095 51.9053 12.5877 52.2273C13.3659 52.5493 14.0309 53.0945 14.4986 53.7939C14.9663 54.4932 15.2156 55.3154 15.2151 56.1562C15.2144 57.2825 14.7658 58.3625 13.9679 59.1589C13.17 59.9553 12.088 60.403 10.9596 60.4038ZM10.9596 46.1227C10.118 46.1227 9.29523 45.8736 8.59542 45.4069C7.89562 44.9401 7.35018 44.2768 7.0281 43.5006C6.70601 42.7245 6.62174 41.8704 6.78594 41.0465C6.95014 40.2226 7.35543 39.4657 7.95057 38.8717C8.5457 38.2777 9.30395 37.8731 10.1294 37.7092C10.9549 37.5453 11.8105 37.6294 12.5881 37.9509C13.3657 38.2724 14.0303 38.8168 14.4979 39.5153C14.9655 40.2138 15.2151 41.0351 15.2151 41.8752C15.2151 43.0017 14.7667 44.0821 13.9687 44.8786C13.1706 45.6752 12.0882 46.1227 10.9596 46.1227ZM10.9596 31.309C10.1173 31.3095 9.29379 31.0607 8.59318 30.594C7.89257 30.1273 7.34637 29.4637 7.02367 28.6871C6.70096 27.9106 6.61625 27.0559 6.78024 26.2312C6.94424 25.4066 7.34958 24.649 7.94498 24.0543C8.54039 23.4597 9.29912 23.0546 10.1252 22.8904C10.9513 22.7262 11.8076 22.8102 12.5858 23.1318C13.3641 23.4534 14.0292 23.9982 14.4973 24.6972C14.9653 25.3962 15.2151 26.218 15.2151 27.0588C15.2151 28.1855 14.7668 29.2662 13.9689 30.0632C13.1709 30.8602 12.0885 31.3083 10.9596 31.309ZM25.3594 60.4038C24.517 60.4043 23.6933 60.1554 22.9926 59.6886C22.292 59.2218 21.7458 58.558 21.4231 57.7813C21.1005 57.0045 21.016 56.1497 21.1802 55.325C21.3444 54.5003 21.75 53.7427 22.3457 53.1481C22.9414 52.5536 23.7003 52.1487 24.5266 51.9848C25.3528 51.8209 26.2092 51.9053 26.9874 52.2273C27.7656 52.5493 28.4306 53.0945 28.8983 53.7939C29.366 54.4932 29.6154 55.3154 29.6148 56.1562C29.6148 57.2827 29.1665 58.3631 28.3684 59.1597C27.5704 59.9562 26.488 60.4038 25.3594 60.4038ZM25.3594 46.1227C24.5177 46.1227 23.695 45.8736 22.9952 45.4069C22.2954 44.9401 21.7499 44.2768 21.4278 43.5006C21.1058 42.7245 21.0215 41.8704 21.1857 41.0465C21.3499 40.2226 21.7552 39.4657 22.3503 38.8717C22.9454 38.2777 23.7037 37.8731 24.5292 37.7092C25.3546 37.5453 26.2103 37.6294 26.9879 37.9509C27.7654 38.2724 28.4301 38.8168 28.8976 39.5153C29.3652 40.2138 29.6148 41.0351 29.6148 41.8752C29.6148 43.0017 29.1665 44.0821 28.3684 44.8786C27.5704 45.6752 26.488 46.1227 25.3594 46.1227ZM25.3594 31.309C24.5171 31.3095 23.6935 31.0607 22.9929 30.594C22.2923 30.1273 21.7461 29.4637 21.4234 28.6871C21.1007 27.9106 21.016 27.0559 21.18 26.2312C21.344 25.4066 21.7493 24.649 22.3447 24.0543C22.9401 23.4597 23.6989 23.0546 24.5249 22.8904C25.351 22.7262 26.2073 22.8102 26.9856 23.1318C27.7638 23.4534 28.429 23.9982 28.897 24.6972C29.365 25.3962 29.6148 26.218 29.6148 27.0588C29.6152 27.6168 29.5054 28.1694 29.2917 28.6851C29.078 29.2007 28.7646 29.6693 28.3694 30.064C27.9742 30.4587 27.505 30.7718 26.9885 30.9854C26.472 31.1991 25.9184 31.309 25.3594 31.309ZM39.7591 46.1227C38.9175 46.1227 38.0947 45.8736 37.3949 45.4069C36.6951 44.9401 36.1497 44.2768 35.8276 43.5006C35.5055 42.7245 35.4212 41.8704 35.5854 41.0465C35.7496 40.2226 36.1549 39.4657 36.75 38.8717C37.3452 38.2777 38.1034 37.8731 38.9289 37.7092C39.7544 37.5453 40.61 37.6294 41.3876 37.9509C42.1652 38.2724 42.8298 38.8168 43.2974 39.5153C43.765 40.2138 44.0146 41.0351 44.0146 41.8752C44.0146 42.4329 43.9045 42.9853 43.6906 43.5006C43.4768 44.016 43.1633 44.4842 42.7682 44.8786C42.373 45.273 41.9039 45.5859 41.3876 45.7994C40.8713 46.0128 40.3179 46.1227 39.7591 46.1227ZM39.7591 31.309C38.9168 31.3095 38.0933 31.0607 37.3927 30.594C36.6921 30.1273 36.1459 29.4637 35.8231 28.6871C35.5004 27.9106 35.4157 27.0559 35.5797 26.2312C35.7437 25.4066 36.1491 24.649 36.7445 24.0543C37.3399 23.4597 38.0986 23.0546 38.9247 22.8904C39.7508 22.7262 40.6071 22.8102 41.3853 23.1318C42.1635 23.4534 42.8287 23.9982 43.2967 24.6972C43.7648 25.3962 44.0146 26.218 44.0146 27.0588C44.0149 27.6168 43.9051 28.1694 43.6914 28.6851C43.4777 29.2007 43.1643 29.6693 42.7691 30.064C42.3739 30.4587 41.9047 30.7718 41.3882 30.9854C40.8718 31.1991 40.3182 31.309 39.7591 31.309Z" fill="#00AEEF"/>
<path d="M14.8715 0H7.15692V15.4869H14.8715V0Z" fill="#00AEEF"/>
<path d="M44.0148 0H36.3002V15.4869H44.0148V0Z" fill="#00AEEF"/>
<g opacity="0.27">
<path d="M14.8715 0H7.15692V15.4869H14.8715V0Z" fill="black"/>
<path d="M44.015 0H36.3004V15.4869H44.015V0Z" fill="black"/>
</g>
</svg>
