<svg width="14" height="14" viewBox="0 0 14 14" fill="none" xmlns="http://www.w3.org/2000/svg">
<path d="M4.66602 3.354C4.42685 3.354 4.22852 3.15567 4.22852 2.9165V1.1665C4.22852 0.927337 4.42685 0.729004 4.66602 0.729004C4.90518 0.729004 5.10352 0.927337 5.10352 1.1665V2.9165C5.10352 3.15567 4.90518 3.354 4.66602 3.354Z" fill="#717680"/>
<path d="M9.33398 3.354C9.09482 3.354 8.89648 3.15567 8.89648 2.9165V1.1665C8.89648 0.927337 9.09482 0.729004 9.33398 0.729004C9.57315 0.729004 9.77148 0.927337 9.77148 1.1665V2.9165C9.77148 3.15567 9.57315 3.354 9.33398 3.354Z" fill="#717680"/>
<path d="M4.95833 8.4582C4.80667 8.4582 4.655 8.39403 4.54417 8.28903C4.43917 8.17819 4.375 8.03237 4.375 7.87487C4.375 7.79903 4.3925 7.7232 4.42167 7.6532C4.45083 7.5832 4.49167 7.51904 4.54417 7.4607C4.76 7.24487 5.15083 7.24487 5.3725 7.4607C5.4775 7.57154 5.54167 7.7232 5.54167 7.87487C5.54167 7.90987 5.53584 7.95071 5.53 7.99154C5.52417 8.02654 5.5125 8.06153 5.495 8.09653C5.48333 8.13153 5.46583 8.16653 5.4425 8.20153C5.41917 8.2307 5.39583 8.25986 5.3725 8.28903C5.26167 8.39403 5.11 8.4582 4.95833 8.4582Z" fill="#717680"/>
<path d="M6.99935 8.45835C6.92352 8.45835 6.84768 8.44086 6.77768 8.41169C6.70185 8.38253 6.64352 8.34168 6.58518 8.28918C6.48018 8.17835 6.41602 8.03252 6.41602 7.87502C6.41602 7.79919 6.43352 7.72335 6.46268 7.65335C6.49185 7.58335 6.53268 7.51919 6.58518 7.46086C6.64352 7.40836 6.70185 7.36751 6.77768 7.33834C6.99352 7.25084 7.25018 7.29752 7.41352 7.46086C7.51852 7.57169 7.58268 7.72335 7.58268 7.87502C7.58268 7.91002 7.57685 7.95086 7.57102 7.99169C7.56518 8.02669 7.55351 8.06169 7.53601 8.09669C7.52435 8.13169 7.50685 8.16668 7.48352 8.20168C7.46602 8.23085 7.43685 8.26001 7.41352 8.28918C7.30268 8.39418 7.15102 8.45835 6.99935 8.45835Z" fill="#717680"/>
<path d="M4.95833 10.5C4.8825 10.5 4.80667 10.4825 4.73667 10.4533C4.66083 10.4241 4.59667 10.3833 4.54417 10.3308C4.49167 10.2783 4.45083 10.2141 4.42167 10.1383C4.3925 10.0683 4.375 9.99246 4.375 9.91662C4.375 9.84079 4.3925 9.76495 4.42167 9.69495C4.45083 9.61912 4.49167 9.55496 4.54417 9.50246C4.59667 9.44996 4.66083 9.40911 4.73667 9.37995C4.87667 9.32161 5.04 9.31578 5.18 9.37995C5.25583 9.40911 5.32 9.44996 5.3725 9.50246C5.425 9.55496 5.46583 9.61912 5.495 9.69495C5.52417 9.76495 5.54167 9.84079 5.54167 9.91662C5.54167 9.99246 5.52417 10.0683 5.495 10.1383C5.46583 10.2141 5.425 10.2783 5.3725 10.3308C5.32 10.3833 5.25583 10.4241 5.18 10.4533C5.11 10.4825 5.03417 10.5 4.95833 10.5Z" fill="#717680"/>
<path d="M11.9577 5.73975H2.04102C1.80185 5.73975 1.60352 5.54141 1.60352 5.30225C1.60352 5.06308 1.80185 4.86475 2.04102 4.86475H11.9577C12.1968 4.86475 12.3952 5.06308 12.3952 5.30225C12.3952 5.54141 12.1968 5.73975 11.9577 5.73975Z" fill="#717680"/>
<path d="M10.4993 13.8542C9.81685 13.8542 9.16935 13.6092 8.67352 13.16C8.46352 12.985 8.27685 12.7633 8.12518 12.5067C7.86852 12.0867 7.72852 11.5908 7.72852 11.0833C7.72852 9.555 8.97102 8.3125 10.4993 8.3125C11.2927 8.3125 12.051 8.65666 12.576 9.25166C13.0252 9.76499 13.2702 10.4125 13.2702 11.0833C13.2702 11.5908 13.1302 12.0867 12.8677 12.5125C12.3777 13.3408 11.4677 13.8542 10.4993 13.8542ZM10.4993 9.1875C9.45518 9.1875 8.60352 10.0392 8.60352 11.0833C8.60352 11.4275 8.69685 11.7658 8.87768 12.0575C8.97685 12.2325 9.10518 12.3783 9.24518 12.5008C9.59518 12.8158 10.0327 12.9792 10.4993 12.9792C11.1702 12.9792 11.7768 12.635 12.121 12.0633C12.3018 11.7658 12.3952 11.4333 12.3952 11.0833C12.3952 10.6283 12.226 10.185 11.9227 9.82917C11.561 9.42084 11.0418 9.1875 10.4993 9.1875Z" fill="#717680"/>
<path d="M10.1678 12.0982C10.057 12.0982 9.94617 12.0574 9.85867 11.9699L9.28117 11.3924C9.11201 11.2232 9.11201 10.9432 9.28117 10.7741C9.45034 10.6049 9.73034 10.6049 9.8995 10.7741L10.1795 11.0541L11.1128 10.1907C11.2878 10.0274 11.5678 10.0391 11.7312 10.2141C11.8945 10.3891 11.8828 10.6691 11.7078 10.8324L10.4653 11.9816C10.3778 12.0574 10.2728 12.0982 10.1678 12.0982Z" fill="#717680"/>
<path d="M8.96583 13.2707H4.66667C2.5375 13.2707 1.3125 12.0457 1.3125 9.9165V4.95817C1.3125 2.829 2.5375 1.604 4.66667 1.604H9.33333C11.4625 1.604 12.6875 2.829 12.6875 4.95817V9.54316C12.6875 9.724 12.5767 9.88734 12.4017 9.9515C12.2325 10.0157 12.04 9.96901 11.9175 9.82901C11.5558 9.42067 11.0367 9.18734 10.4942 9.18734C9.45 9.18734 8.59833 10.039 8.59833 11.0832C8.59833 11.4273 8.69167 11.7657 8.8725 12.0573C8.97167 12.2323 9.1 12.3782 9.24 12.5007C9.38 12.6173 9.4325 12.8098 9.36833 12.9848C9.31583 13.154 9.1525 13.2707 8.96583 13.2707ZM4.66667 2.479C2.99833 2.479 2.1875 3.28984 2.1875 4.95817V9.9165C2.1875 11.5848 2.99833 12.3957 4.66667 12.3957H8.06167C7.84583 11.999 7.72917 11.5498 7.72917 11.0832C7.72917 9.55484 8.97167 8.31234 10.5 8.31234C10.9608 8.31234 11.4158 8.42901 11.8125 8.64484V4.95817C11.8125 3.28984 11.0017 2.479 9.33333 2.479H4.66667Z" fill="#717680"/>
</svg>
