<svg width="118" height="117" viewBox="0 0 118 117" fill="none" xmlns="http://www.w3.org/2000/svg">
<rect x="0.923828" y="0.5625" width="115.875" height="115.875" rx="57.9375" fill="white"/>
<rect x="0.923828" y="0.5625" width="115.875" height="115.875" rx="57.9375" stroke="#E9EAEB" stroke-width="1.125"/>
<path d="M67.8421 45.9579C64.0571 46.3217 60.7905 47.5183 58.6961 50.3864C56.6017 47.5183 53.335 46.3217 49.5501 45.9579C43.514 45.3776 36.6492 45.071 32.3369 42.2148C36.7788 50.3473 34.3771 60.2566 47.1694 63.6991C50.5234 64.601 54.0402 64.0177 57.1411 62.4574C57.6082 62.2229 58.1386 62.0906 58.6961 62.0906C59.2536 62.0906 59.7839 62.2229 60.251 62.4574C63.3519 64.0177 66.8687 64.601 70.2227 63.6991C83.0151 60.2566 80.6133 50.3473 85.0552 42.2148C80.7429 45.071 73.8781 45.3776 67.8421 45.9579ZM43.8997 56.3573C42.3297 54.9923 41.5522 53.1073 40.7416 50.3564C42.8631 50.66 44.9967 50.8524 47.0368 51.0358C47.7118 51.0959 48.3808 51.1561 49.0408 51.2192C52.8197 51.583 55.6946 54.6376 55.8423 58.3806C53.1241 57.611 47.3984 54.6496 47.3984 54.6496C49.5772 57.3915 55.8483 59.5952 55.8483 59.5952C50.0774 59.3277 46.0665 58.2423 43.8997 56.3543V56.3573ZM73.4924 56.3573C71.3257 58.2453 67.3117 59.3307 61.5438 59.5982C61.5438 59.5982 67.8149 57.3975 69.9937 54.6526C69.9937 54.6526 64.268 57.611 61.5499 58.3836C61.6975 54.6376 64.5724 51.583 68.3513 51.2222C69.0113 51.1591 69.6803 51.099 70.3553 51.0388C72.3955 50.8554 74.529 50.663 76.6505 50.3594C75.8399 53.1103 75.0624 54.9953 73.4924 56.3603V56.3573Z" fill="url(#paint0_linear_8469_54365)"/>
<path d="M47.619 44.5986C48.0831 44.6407 48.5412 44.6828 48.9992 44.7249V44.1867C48.9992 38.8502 53.3507 34.5119 58.6967 34.5119C64.0426 34.5119 68.3941 38.8532 68.3941 44.1867V44.7249C68.8522 44.6828 69.3103 44.6407 69.7743 44.5986C70.6965 44.5144 71.6216 44.4332 72.5437 44.34V44.1867C72.5437 36.5593 66.345 30.375 58.6967 30.375C51.0484 30.375 44.8496 36.5593 44.8496 44.1897V44.343C45.7717 44.4362 46.6969 44.5204 47.619 44.6016V44.5986Z" fill="#161616"/>
<path d="M24.9517 75.7365V86.9055H21.7363V70.875H25.015L34.5919 82.044V70.875H37.8074V86.9055H34.5407L24.9517 75.7365Z" fill="#161616"/>
<path d="M57.0906 83.6975V86.9054H46.3775C42.8065 86.9054 41.0195 85.1256 41.0195 81.5629V76.2204C41.0195 72.6578 42.8065 70.8779 46.3775 70.8779H57.0906V74.0858H46.8175C45.0968 74.0858 44.2349 74.9397 44.2349 76.6503V81.13C44.2349 82.8467 45.0998 83.7065 46.8266 83.7065H57.0906V83.6975Z" fill="#161616"/>
<path d="M71.0168 86.9054L65.6588 86.9174V86.9054C62.0878 86.9054 60.3008 85.1256 60.3008 81.5629V76.2204C60.3008 72.6578 62.0878 70.8779 65.6588 70.8779H71.0168C74.5878 70.8779 76.3718 72.6608 76.3718 76.2204V81.5629C76.3718 85.1196 74.5848 86.8994 71.0168 86.9054ZM70.4804 83.6975C72.2644 83.6975 73.1594 82.8076 73.1594 81.0248V76.7496C73.1594 74.9667 72.2674 74.0768 70.4804 74.0768H65.6588C64.2304 74.0768 63.5162 74.9667 63.5162 76.7496V81.0248C63.5162 82.8076 64.4082 83.6975 66.1952 83.6975H70.4804Z" fill="#161616"/>
<path d="M95.6549 78.355V86.9054H84.9419C81.3709 86.9054 79.5869 85.1256 79.5869 81.5629V76.2204C79.5869 72.6578 81.3709 70.8779 84.9419 70.8779H95.6549V74.0858H85.3819C83.6612 74.0858 82.7993 74.9397 82.7993 76.6503V81.13C82.7993 82.8467 83.6642 83.7065 85.3909 83.7065H92.4395V78.364H95.6519L95.6549 78.355Z" fill="#161616"/>
<defs>
<linearGradient id="paint0_linear_8469_54365" x1="58.6961" y1="64.5138" x2="58.6961" y2="42.5425" gradientUnits="userSpaceOnUse">
<stop stop-color="#006837"/>
<stop offset="1" stop-color="#39B54A"/>
</linearGradient>
</defs>
</svg>
