<svg width="29" height="31" viewBox="0 0 29 31" fill="none" xmlns="http://www.w3.org/2000/svg">
<path fill-rule="evenodd" clip-rule="evenodd" d="M20.4174 1.94302C17.8743 0.647673 14.9023 0 11.5014 0L6.4142 1.67973e-05C5.00383 2.14541e-05 3.82078 0.973267 3.5 2.28479L15.3457 14.1853C16.1037 14.9468 16.1037 16.1586 15.3457 16.9202L3.52174 28.7988C3.87144 30.0679 5.03398 31 6.41423 31L11.5014 31C14.8717 31 17.8284 30.3523 20.3714 29.057C22.9451 27.7616 24.9213 25.9364 26.3001 23.5812C27.7095 21.226 28.4142 18.5323 28.4142 15.5C28.4142 12.4383 27.7095 9.74454 26.3001 7.4188C24.9213 5.06363 22.9604 3.23837 20.4174 1.94302Z" fill="url(#paint0_linear_9998_29839)"/>
<path opacity="0.5" d="M12.0736 16.6272C12.6421 16.0288 12.6421 15.0767 12.0736 14.4783L3.09001 5.02339C2.1464 4.03027 0.500001 4.71325 0.500001 6.09781L0.5 25.0077C0.5 26.3922 2.1464 27.0752 3.09001 26.0821L12.0736 16.6272Z" fill="url(#paint1_linear_9998_29839)"/>
<defs>
<linearGradient id="paint0_linear_9998_29839" x1="15.7386" y1="-17" x2="50.9987" y2="0.704491" gradientUnits="userSpaceOnUse">
<stop stop-color="#18F06E"/>
<stop offset="1" stop-color="#0B6DE0"/>
</linearGradient>
<linearGradient id="paint1_linear_9998_29839" x1="6.39476" y1="-7.51178" x2="25.447" y2="-1.01915" gradientUnits="userSpaceOnUse">
<stop stop-color="#18F06E"/>
<stop offset="1" stop-color="#0B6DE0"/>
</linearGradient>
</defs>
</svg>
