<svg width="14" height="12" viewBox="0 0 14 12" fill="none" xmlns="http://www.w3.org/2000/svg">
<path d="M0 10.3501C0 10.8473 0.406237 11.2501 0.906756 11.2501H0.919789C0.411606 11.2501 0 10.8473 0 10.3501Z" fill="#FBBC05"/>
<path d="M7.79223 3.37498V5.72472L10.9601 3.16948V0.899995C10.9601 0.402748 10.5539 0 10.0534 0H3.19022L3.18408 3.37498H7.79223Z" fill="#FBBC05"/>
<path d="M7.79207 8.07532H3.17626L3.1709 11.2501H10.0532C10.5545 11.2501 10.96 10.8473 10.96 10.3501V8.30107L7.79207 5.72559V8.07532V8.07532Z" fill="#34A853"/>
<path d="M3.19014 0L0 3.37498H3.18477L3.19014 0Z" fill="#EA4335"/>
<path d="M0 8.0752V10.3499C0 10.8472 0.411606 11.2499 0.919789 11.2499H3.17097L3.17634 8.0752H0V8.0752Z" fill="#1967D2"/>
<path d="M3.18477 3.375H0V8.07523H3.17634L3.18477 3.375Z" fill="#4285F4"/>
<path d="M13.7456 9.55002V1.82506C13.567 0.79981 12.4426 1.97505 12.4426 1.97505L10.9609 3.1698V8.30052L13.0818 10.0248C13.8475 10.1253 13.7456 9.55002 13.7456 9.55002Z" fill="#34A853"/>
<path d="M7.79199 5.7249L10.9607 8.30114V3.17041L7.79199 5.7249Z" fill="#188038"/>
</svg>
