<svg width="18" height="18" viewBox="0 0 18 18" fill="none" xmlns="http://www.w3.org/2000/svg">
<path d="M8.93994 17.0625C4.49994 17.0625 0.877441 13.4475 0.877441 9C0.877441 4.5525 4.49994 0.9375 8.93994 0.9375C13.3799 0.9375 17.0024 4.5525 17.0024 9C17.0024 13.4475 13.3874 17.0625 8.93994 17.0625ZM8.93994 2.0625C5.11494 2.0625 2.00244 5.175 2.00244 9C2.00244 12.825 5.11494 15.9375 8.93994 15.9375C12.7649 15.9375 15.8774 12.825 15.8774 9C15.8774 5.175 12.7649 2.0625 8.93994 2.0625Z" fill="#D92D20"/>
<path d="M11.9399 9.5625H5.93994C5.63244 9.5625 5.37744 9.3075 5.37744 9C5.37744 8.6925 5.63244 8.4375 5.93994 8.4375H11.9399C12.2474 8.4375 12.5024 8.6925 12.5024 9C12.5024 9.3075 12.2549 9.5625 11.9399 9.5625Z" fill="#D92D20"/>
</svg>
