<svg width="40" height="40" viewBox="0 0 40 40" fill="none" xmlns="http://www.w3.org/2000/svg">
<path d="M13.8167 10.4833C13.1167 10.4833 12.5667 9.91659 12.5667 9.23325V4.58325C12.5667 3.89992 13.1167 3.33325 13.8167 3.33325C14.5167 3.33325 15.0667 3.89992 15.0667 4.58325V9.21659C15.0667 9.91659 14.5167 10.4833 13.8167 10.4833Z" fill="#00AEEF"/>
<path d="M26.1833 10.4833C25.4833 10.4833 24.9333 9.91659 24.9333 9.23325V4.58325C24.9333 3.88325 25.5 3.33325 26.1833 3.33325C26.8833 3.33325 27.4333 3.89992 27.4333 4.58325V9.21659C27.4333 9.91659 26.8833 10.4833 26.1833 10.4833Z" fill="#00AEEF"/>
<path d="M32.6167 7.49992C31.5167 6.68325 29.9333 7.46659 29.9333 8.84992V9.01659C29.9333 10.9666 28.5333 12.7666 26.5833 12.9666C24.3333 13.1999 22.4333 11.4333 22.4333 9.23325V7.49992C22.4333 6.58325 21.6833 5.83325 20.7667 5.83325H19.2333C18.3167 5.83325 17.5667 6.58325 17.5667 7.49992V9.23325C17.5667 10.5499 16.8833 11.7166 15.85 12.3666C15.7 12.4666 15.5333 12.5499 15.3667 12.6333C15.2167 12.7166 15.05 12.7833 14.8667 12.8333C14.6667 12.8999 14.45 12.9499 14.2167 12.9666C13.95 12.9999 13.6833 12.9999 13.4167 12.9666C13.1833 12.9499 12.9667 12.8999 12.7667 12.8333C12.6 12.7833 12.4333 12.7166 12.2667 12.6333C12.1 12.5499 11.9333 12.4666 11.7833 12.3666C10.7333 11.6333 10.0667 10.3666 10.0667 9.01659V8.84992C10.0667 7.56659 8.69999 6.79992 7.61666 7.34992C7.59999 7.36659 7.58332 7.36659 7.56666 7.38325C7.49999 7.41659 7.44999 7.44992 7.38332 7.49992C7.33332 7.54992 7.26666 7.58325 7.21666 7.63325C6.74999 7.99992 6.33332 8.41659 5.98332 8.86659C5.79999 9.06659 5.64999 9.28325 5.51666 9.49992C5.49999 9.51659 5.48332 9.53325 5.46666 9.56659C5.31666 9.78325 5.18332 10.0333 5.06666 10.2666C5.03332 10.2999 5.01666 10.3166 5.01666 10.3499C4.91666 10.5499 4.81666 10.7499 4.74999 10.9666C4.69999 11.0499 4.68332 11.1166 4.64999 11.1999C4.54999 11.4499 4.48332 11.6999 4.41666 11.9499C4.34999 12.1833 4.29999 12.4333 4.26666 12.6833C4.23332 12.8666 4.21666 13.0499 4.19999 13.2499C4.18332 13.4833 4.16666 13.7166 4.16666 13.9499V28.5499C4.16666 33.0333 7.79999 36.6666 12.2833 36.6666H27.7167C32.2 36.6666 35.8333 33.0333 35.8333 28.5499V13.9499C35.8333 11.2999 34.5667 8.98325 32.6167 7.49992ZM20 29.0333H12.2667C11.5833 29.0333 11.0167 28.4666 11.0167 27.7833C11.0167 27.0833 11.5833 26.5166 12.2667 26.5166H20C20.7 26.5166 21.25 27.0833 21.25 27.7833C21.25 28.4666 20.7 29.0333 20 29.0333ZM24.6333 22.8499H12.2667C11.5833 22.8499 11.0167 22.2833 11.0167 21.5999C11.0167 20.8999 11.5833 20.3333 12.2667 20.3333H24.6333C25.3333 20.3333 25.9 20.8999 25.9 21.5999C25.9 22.2833 25.3333 22.8499 24.6333 22.8499Z" fill="#00AEEF"/>
</svg>
