<svg width="22" height="22" viewBox="0 0 22 22" fill="none" xmlns="http://www.w3.org/2000/svg">
<path d="M16.3075 20.8541H5.69248C3.18081 20.8541 1.14581 18.8099 1.14581 16.2982V9.50573C1.14581 8.25906 1.91581 6.69156 2.90581 5.92156L7.84665 2.07156C9.33165 0.916562 11.7058 0.861561 13.2458 1.94323L18.9108 5.91239C20.0016 6.67323 20.8541 8.3049 20.8541 9.63406V16.3074C20.8541 18.8099 18.8191 20.8541 16.3075 20.8541ZM8.68998 3.15323L3.74915 7.00323C3.09831 7.51656 2.52081 8.68073 2.52081 9.50573V16.2982C2.52081 18.0491 3.94165 19.4791 5.69248 19.4791H16.3075C18.0583 19.4791 19.4791 18.0582 19.4791 16.3074V9.63406C19.4791 8.75406 18.8466 7.5349 18.1225 7.03989L12.4575 3.07073C11.4125 2.33739 9.68915 2.37406 8.68998 3.15323Z"/>
<path d="M11 17.1875C10.6242 17.1875 10.3125 16.8758 10.3125 16.5V13.75C10.3125 13.3742 10.6242 13.0625 11 13.0625C11.3758 13.0625 11.6875 13.3742 11.6875 13.75V16.5C11.6875 16.8758 11.3758 17.1875 11 17.1875Z"/>
</svg>