<svg width="70" height="69" viewBox="0 0 70 69" fill="none" xmlns="http://www.w3.org/2000/svg">
<path d="M35.5416 4.63005e-07H7.93666C6.89384 -0.000355452 5.86119 0.204487 4.89776 0.602812C3.93432 1.00114 3.05901 1.58513 2.32188 2.32139C1.58476 3.05765 1.00027 3.93173 0.601864 4.89365C0.203455 5.85556 -0.00106399 6.88644 4.16248e-06 7.92731V60.8337C4.16248e-06 62.9347 0.836185 64.9497 2.3246 66.4354C3.81301 67.921 5.83172 68.7556 7.93666 68.7556H35.5389C44.6729 68.7556 53.4329 65.1341 59.892 58.6876C66.351 52.2411 69.98 43.4976 69.9807 34.3805C69.9818 29.8658 69.0917 25.395 67.3614 21.2237C65.6312 17.0523 63.0945 13.262 59.8964 10.0694C56.6983 6.87669 52.9014 4.34417 48.7225 2.61644C44.5437 0.888721 40.0647 -0.000354792 35.5416 4.63005e-07ZM10.9596 57.1594C10.1172 57.1599 9.29356 56.911 8.5929 56.4442C7.89223 55.9774 7.34603 55.3136 7.02341 54.5369C6.70078 53.7601 6.61623 52.9053 6.78044 52.0806C6.94466 51.2559 7.35026 50.4983 7.94594 49.9037C8.54162 49.3092 9.3006 48.9043 10.1269 48.7404C10.9531 48.5765 11.8095 48.6609 12.5877 48.9829C13.3659 49.3049 14.0309 49.8501 14.4986 50.5495C14.9663 51.2489 15.2156 52.071 15.2151 52.9118C15.2144 54.0381 14.7658 55.1181 13.9679 55.9145C13.17 56.7109 12.088 57.1587 10.9596 57.1594ZM10.9596 42.8783C10.118 42.8783 9.29523 42.6292 8.59542 42.1625C7.89562 41.6957 7.35018 41.0324 7.0281 40.2562C6.70601 39.4801 6.62174 38.6261 6.78594 37.8021C6.95014 36.9782 7.35543 36.2213 7.95057 35.6273C8.5457 35.0333 9.30395 34.6287 10.1294 34.4648C10.9549 34.3009 11.8105 34.3851 12.5881 34.7066C13.3657 35.028 14.0303 35.5725 14.4979 36.271C14.9655 36.9695 15.2151 37.7907 15.2151 38.6308C15.2151 39.7573 14.7667 40.8377 13.9687 41.6342C13.1706 42.4308 12.0882 42.8783 10.9596 42.8783ZM10.9596 28.0646C10.1173 28.0652 9.29379 27.8163 8.59318 27.3496C7.89257 26.8829 7.34637 26.2193 7.02367 25.4428C6.70096 24.6662 6.61625 23.8115 6.78024 22.9869C6.94424 22.1622 7.34958 21.4046 7.94498 20.81C8.54039 20.2153 9.29912 19.8102 10.1252 19.646C10.9513 19.4818 11.8076 19.5658 12.5858 19.8874C13.3641 20.209 14.0292 20.7538 14.4973 21.4528C14.9653 22.1518 15.2151 22.9736 15.2151 23.8144C15.2151 24.9411 14.7668 26.0218 13.9689 26.8188C13.1709 27.6158 12.0885 28.0639 10.9596 28.0646ZM25.3594 57.1594C24.517 57.1599 23.6933 56.911 22.9926 56.4442C22.292 55.9774 21.7458 55.3136 21.4231 54.5369C21.1005 53.7601 21.016 52.9053 21.1802 52.0806C21.3444 51.2559 21.75 50.4983 22.3457 49.9037C22.9414 49.3092 23.7003 48.9043 24.5266 48.7404C25.3528 48.5765 26.2092 48.6609 26.9874 48.9829C27.7656 49.3049 28.4306 49.8501 28.8983 50.5495C29.366 51.2489 29.6154 52.071 29.6148 52.9118C29.6148 54.0383 29.1665 55.1187 28.3684 55.9153C27.5704 56.7119 26.488 57.1594 25.3594 57.1594ZM25.3594 42.8783C24.5177 42.8783 23.695 42.6292 22.9952 42.1625C22.2954 41.6957 21.7499 41.0324 21.4278 40.2562C21.1058 39.4801 21.0215 38.6261 21.1857 37.8021C21.3499 36.9782 21.7552 36.2213 22.3503 35.6273C22.9454 35.0333 23.7037 34.6287 24.5292 34.4648C25.3546 34.3009 26.2103 34.3851 26.9879 34.7066C27.7654 35.028 28.4301 35.5725 28.8976 36.271C29.3652 36.9695 29.6148 37.7907 29.6148 38.6308C29.6148 39.7573 29.1665 40.8377 28.3684 41.6342C27.5704 42.4308 26.488 42.8783 25.3594 42.8783ZM25.3594 28.0646C24.5171 28.0652 23.6935 27.8163 22.9929 27.3496C22.2923 26.8829 21.7461 26.2193 21.4234 25.4428C21.1007 24.6662 21.016 23.8115 21.18 22.9869C21.344 22.1622 21.7493 21.4046 22.3447 20.81C22.9401 20.2153 23.6989 19.8102 24.5249 19.646C25.351 19.4818 26.2073 19.5658 26.9856 19.8874C27.7638 20.209 28.429 20.7538 28.897 21.4528C29.365 22.1518 29.6148 22.9736 29.6148 23.8144C29.6152 24.3724 29.5054 24.925 29.2917 25.4407C29.078 25.9563 28.7646 26.4249 28.3694 26.8196C27.9742 27.2143 27.505 27.5274 26.9885 27.741C26.472 27.9547 25.9184 28.0646 25.3594 28.0646ZM39.7591 42.8783C38.9175 42.8783 38.0947 42.6292 37.3949 42.1625C36.6951 41.6957 36.1497 41.0324 35.8276 40.2562C35.5055 39.4801 35.4212 38.6261 35.5854 37.8021C35.7496 36.9782 36.1549 36.2213 36.75 35.6273C37.3452 35.0333 38.1034 34.6287 38.9289 34.4648C39.7544 34.3009 40.61 34.3851 41.3876 34.7066C42.1652 35.028 42.8298 35.5725 43.2974 36.271C43.765 36.9695 44.0146 37.7907 44.0146 38.6308C44.0146 39.1886 43.9045 39.7409 43.6906 40.2562C43.4768 40.7716 43.1633 41.2398 42.7682 41.6342C42.373 42.0287 41.9039 42.3415 41.3876 42.555C40.8713 42.7684 40.3179 42.8783 39.7591 42.8783ZM39.7591 28.0646C38.9168 28.0652 38.0933 27.8163 37.3927 27.3496C36.6921 26.8829 36.1459 26.2193 35.8231 25.4428C35.5004 24.6662 35.4157 23.8115 35.5797 22.9869C35.7437 22.1622 36.1491 21.4046 36.7445 20.81C37.3399 20.2153 38.0986 19.8102 38.9247 19.646C39.7508 19.4818 40.6071 19.5658 41.3853 19.8874C42.1635 20.209 42.8287 20.7538 43.2967 21.4528C43.7648 22.1518 44.0146 22.9736 44.0146 23.8144C44.0149 24.3724 43.9051 24.925 43.6914 25.4407C43.4777 25.9563 43.1643 26.4249 42.7691 26.8196C42.3739 27.2143 41.9047 27.5274 41.3882 27.741C40.8718 27.9547 40.3182 28.0646 39.7591 28.0646Z" fill="#00AEEF"/>
</svg>
