<svg width="40" height="40" viewBox="0 0 40 40" fill="none" xmlns="http://www.w3.org/2000/svg">
<path d="M26.9833 3.33325H13.0167C6.95001 3.33325 3.33334 6.94992 3.33334 13.0166V26.9833C3.33334 33.0499 6.95001 36.6666 13.0167 36.6666H26.9833C33.05 36.6666 36.6667 33.0499 36.6667 26.9833V13.0166C36.6667 6.94992 33.05 3.33325 26.9833 3.33325ZM16.6167 24.8333L12.8667 28.5833C12.6167 28.8333 12.3 28.9499 11.9833 28.9499C11.6667 28.9499 11.3333 28.8333 11.1 28.5833L9.85001 27.3333C9.35001 26.8499 9.35001 26.0499 9.85001 25.5666C10.3333 25.0833 11.1167 25.0833 11.6167 25.5666L11.9833 25.9333L14.85 23.0666C15.3333 22.5833 16.1167 22.5833 16.6167 23.0666C17.1 23.5499 17.1 24.3499 16.6167 24.8333ZM16.6167 13.1666L12.8667 16.9166C12.6167 17.1666 12.3 17.2833 11.9833 17.2833C11.6667 17.2833 11.3333 17.1666 11.1 16.9166L9.85001 15.6666C9.35001 15.1833 9.35001 14.3833 9.85001 13.8999C10.3333 13.4166 11.1167 13.4166 11.6167 13.8999L11.9833 14.2666L14.85 11.3999C15.3333 10.9166 16.1167 10.9166 16.6167 11.3999C17.1 11.8833 17.1 12.6833 16.6167 13.1666ZM29.2667 27.6999H20.5167C19.8333 27.6999 19.2667 27.1333 19.2667 26.4499C19.2667 25.7666 19.8333 25.1999 20.5167 25.1999H29.2667C29.9667 25.1999 30.5167 25.7666 30.5167 26.4499C30.5167 27.1333 29.9667 27.6999 29.2667 27.6999ZM29.2667 16.0333H20.5167C19.8333 16.0333 19.2667 15.4666 19.2667 14.7833C19.2667 14.0999 19.8333 13.5333 20.5167 13.5333H29.2667C29.9667 13.5333 30.5167 14.0999 30.5167 14.7833C30.5167 15.4666 29.9667 16.0333 29.2667 16.0333Z" fill="#00AEEF"/>
</svg>
