<svg width="14" height="14" viewBox="0 0 14 14" fill="none" xmlns="http://www.w3.org/2000/svg">
<path d="M6.30518 9.88754C6.19435 9.88754 6.08352 9.84671 5.99602 9.75921L5.12102 8.88421C4.95185 8.71504 4.95185 8.43504 5.12102 8.26587C5.29018 8.09671 5.57018 8.09671 5.73935 8.26587L6.30518 8.83171L8.32935 6.80754C8.49852 6.63837 8.77852 6.63837 8.94768 6.80754C9.11685 6.97671 9.11685 7.25671 8.94768 7.42587L6.61435 9.75921C6.53268 9.84671 6.41602 9.88754 6.30518 9.88754Z" fill="#717680"/>
<path d="M8.16602 3.93734H5.83268C5.27268 3.93734 4.22852 3.93734 4.22852 2.33317C4.22852 0.729004 5.27268 0.729004 5.83268 0.729004H8.16602C8.72602 0.729004 9.77018 0.729004 9.77018 2.33317C9.77018 2.89317 9.77018 3.93734 8.16602 3.93734ZM5.83268 1.604C5.25518 1.604 5.10352 1.604 5.10352 2.33317C5.10352 3.06234 5.25518 3.06234 5.83268 3.06234H8.16602C8.89518 3.06234 8.89518 2.91067 8.89518 2.33317C8.89518 1.604 8.74352 1.604 8.16602 1.604H5.83268Z" fill="#717680"/>
<path d="M8.75 13.2706H5.25C1.97167 13.2706 1.3125 11.7656 1.3125 9.33309V5.83309C1.3125 3.17309 2.275 2.03559 4.64333 1.91309C4.8825 1.90142 5.0925 2.08226 5.10417 2.32726C5.11583 2.57226 4.92917 2.77059 4.69 2.78226C3.03333 2.87559 2.1875 3.37142 2.1875 5.83309V9.33309C2.1875 11.4914 2.61333 12.3956 5.25 12.3956H8.75C11.3867 12.3956 11.8125 11.4914 11.8125 9.33309V5.83309C11.8125 3.37142 10.9667 2.87559 9.31 2.78226C9.07083 2.77059 8.88417 2.56059 8.89583 2.32142C8.9075 2.08226 9.11167 1.89559 9.35667 1.90726C11.725 2.03559 12.6875 3.17309 12.6875 5.82726V9.32726C12.6875 11.7656 12.0283 13.2706 8.75 13.2706Z" fill="#717680"/>
</svg>
