<svg width="22" height="22" viewBox="0 0 22 22" fill="none" xmlns="http://www.w3.org/2000/svg">
<path d="M19.2497 6.16919C19.2313 6.16919 19.2038 6.16919 19.1763 6.16919C14.3272 5.68335 9.48718 5.50002 4.69301 5.98585L2.82301 6.16919C2.43801 6.20585 2.09885 5.93085 2.06218 5.54585C2.02551 5.16085 2.30051 4.83085 2.67635 4.79419L4.54635 4.61085C9.42301 4.11585 14.3638 4.30835 19.3138 4.79419C19.6897 4.83085 19.9647 5.17002 19.928 5.54585C19.9005 5.90335 19.598 6.16919 19.2497 6.16919Z"/>
<path d="M7.7917 5.24325C7.75503 5.24325 7.71836 5.24325 7.67253 5.23409C7.30586 5.16992 7.0492 4.81242 7.11336 4.44575L7.31503 3.24492C7.4617 2.36492 7.66336 1.14575 9.7992 1.14575H12.2009C14.3459 1.14575 14.5475 2.41075 14.685 3.25409L14.8867 4.44575C14.9509 4.82159 14.6942 5.17909 14.3275 5.23409C13.9517 5.29825 13.5942 5.04159 13.5392 4.67492L13.3375 3.48325C13.2092 2.68575 13.1817 2.52992 12.21 2.52992H9.80836C8.8367 2.52992 8.81836 2.65825 8.68086 3.47409L8.47003 4.66575C8.41503 5.00492 8.1217 5.24325 7.7917 5.24325Z"/>
<path d="M13.9429 20.8541H8.05787C4.85871 20.8541 4.73038 19.0849 4.62954 17.6549L4.03371 8.42411C4.00621 8.04828 4.29954 7.71828 4.67537 7.69078C5.06037 7.67245 5.38121 7.95661 5.40871 8.33245L6.00454 17.5633C6.10538 18.9566 6.14204 19.4791 8.05787 19.4791H13.9429C15.8679 19.4791 15.9045 18.9566 15.9962 17.5633L16.592 8.33245C16.6195 7.95661 16.9495 7.67245 17.3254 7.69078C17.7012 7.71828 17.9945 8.03911 17.967 8.42411L17.3712 17.6549C17.2704 19.0849 17.142 20.8541 13.9429 20.8541Z"/>
<path d="M12.5217 15.8125H9.46918C9.09334 15.8125 8.78168 15.5008 8.78168 15.125C8.78168 14.7492 9.09334 14.4375 9.46918 14.4375H12.5217C12.8975 14.4375 13.2092 14.7492 13.2092 15.125C13.2092 15.5008 12.8975 15.8125 12.5217 15.8125Z"/>
<path d="M13.2916 12.1458H8.70831C8.33248 12.1458 8.02081 11.8341 8.02081 11.4583C8.02081 11.0824 8.33248 10.7708 8.70831 10.7708H13.2916C13.6675 10.7708 13.9791 11.0824 13.9791 11.4583C13.9791 11.8341 13.6675 12.1458 13.2916 12.1458Z"/>
</svg>